<svg xmlns="http://www.w3.org/2000/svg" viewBox="0 0 512 512">
  <!-- Full background - fills entire maskable area -->
  <rect width="512" height="512" fill="#1a1a2e"/>

  <!-- Content in safe zone (80% = 410px, centered at 256, so from 51 to 461) -->
  <!-- Bowl -->
  <ellipse cx="256" cy="300" rx="80" ry="40" fill="#f97316" opacity="0.2"/>
  <path d="M176 300 Q176 245 256 245 Q336 245 336 300" fill="none" stroke="#f97316" stroke-width="7" stroke-linecap="round"/>
  <line x1="176" y1="300" x2="336" y2="300" stroke="#f97316" stroke-width="7" stroke-linecap="round"/>

  <!-- Steam -->
  <path d="M220 225 Q220 208 228 200 Q236 192 228 178" stroke="#fb923c" stroke-width="5" stroke-linecap="round" fill="none" opacity="0.7"/>
  <path d="M256 215 Q256 198 264 190 Q272 182 264 165" stroke="#fb923c" stroke-width="5" stroke-linecap="round" fill="none" opacity="0.8"/>
  <path d="M292 225 Q292 208 300 200 Q308 192 300 178" stroke="#fb923c" stroke-width="5" stroke-linecap="round" fill="none" opacity="0.7"/>

  <!-- Spin arrows -->
  <path d="M140 220 A130 130 0 0 1 310 160" stroke="#f97316" stroke-width="4" fill="none" stroke-linecap="round" opacity="0.4"/>
  <polygon points="310,150 318,168 302,166" fill="#f97316" opacity="0.4"/>
  <path d="M372 340 A130 130 0 0 1 202 400" stroke="#f97316" stroke-width="4" fill="none" stroke-linecap="round" opacity="0.4"/>
  <polygon points="202,410 194,392 210,394" fill="#f97316" opacity="0.4"/>
</svg>
